<?xml version="1.0" encoding="utf-8"?>
<svg xmlns="http://www.w3.org/2000/svg" fill="none" height="24" viewBox="0 0 24 24" width="24">
  <path d="M12.7888 11.9969L18.8268 5.9589C19.0495 5.73619 19.0495 5.38975 18.8268 5.16703C18.6041 4.94432 18.2576 4.94432 18.0349 5.16703L11.9969 11.205L5.9589 5.16703C5.73619 4.94432 5.38975 4.94432 5.16703 5.16703C4.94432 5.38975 4.94432 5.73619 5.16703 5.9589L11.205 11.9969L5.16703 18.0349C4.94432 18.2576 4.94432 18.6041 5.16703 18.8268C5.26602 18.9258 5.41449 19 5.56297 19C5.71144 19 5.85992 18.9505 5.9589 18.8268L11.9969 12.7888L18.0349 18.8268C18.1339 18.9258 18.2824 19 18.4308 19C18.5793 19 18.7278 18.9505 18.8268 18.8268C19.0495 18.6041 19.0495 18.2576 18.8268 18.0349L12.7888 11.9969Z" fill="#00A021"/>
</svg>