<?xml version="1.0" encoding="utf-8"?>
<svg xmlns="http://www.w3.org/2000/svg" fill="none" height="24" viewBox="0 0 93 24" width="93">
<mask height="24" id="mask0_2260_158739" maskUnits="userSpaceOnUse" style="mask-type:luminance" width="93" x="0" y="0">
<path d="M92.2222 0.571411H0V23.6559H92.2222V0.571411Z" fill="white"/>
</mask>
<g mask="url(#mask0_2260_158739)">
<path d="M0 19.707V4.06348H4.82076V18.0285C4.82076 18.7334 5.09619 19.0696 5.88747 19.0696H7.77214V23.1658H3.82095C1.20519 23.1658 0 22.1922 0 19.707Z" fill="#121212"/>
<path d="M9.13647 18.5287C9.13647 15.4596 11.1785 13.4355 15.1961 13.1743L19.4474 12.9131V12.2268C19.4474 10.8233 18.712 10.2352 17.0369 10.2352C15.3973 10.2352 14.727 10.6919 14.5598 11.7368H9.93996C10.2744 8.43905 12.5843 6.54553 17.3713 6.54553C21.4229 6.54553 23.8675 8.50471 23.8675 11.9331V19.0843C23.8675 19.378 24.0006 19.5411 24.3025 19.5411H25.7749V23.1658H22.4277C21.2557 23.1658 20.5853 22.5451 20.5187 21.566C19.6146 22.8396 17.7738 23.6557 15.498 23.6557C11.6136 23.6557 9.13647 21.6966 9.13647 18.5287ZM16.1327 19.9661C17.9751 19.9661 19.4474 19.0187 19.4474 17.0595V16.309L15.9655 16.6027C14.4932 16.7333 13.7903 17.4837 13.7903 18.3656C13.7903 19.3456 14.5938 19.9661 16.1327 19.9661Z" fill="#121212"/>
<path d="M44.1611 15.166C44.1611 10.0721 47.5749 6.54553 52.6979 6.54553C57.0173 6.54553 60.0642 8.99475 60.3645 12.6843H55.6441C55.4103 11.607 54.3715 10.6595 52.6313 10.6595C50.3879 10.6595 48.9822 12.3574 48.9822 15.1327C48.9822 17.9088 50.422 19.5411 52.5972 19.5411C54.3049 19.5411 55.4428 18.5943 55.7106 17.1901H60.4313C60.0642 20.5535 57.1845 23.6557 52.43 23.6557C47.2746 23.6557 44.1611 20.0311 44.1611 15.166Z" fill="#121212"/>
<path d="M61.29 15.0029C61.29 9.87576 64.6371 6.54553 69.5249 6.54553C74.6479 6.54553 77.7287 9.74517 77.7287 14.8715C77.7287 15.4596 77.6946 16.0478 77.6278 16.7333H65.9098C66.111 18.7574 67.4828 19.868 69.7261 19.868C71.2327 19.868 72.2034 19.2474 72.6397 18.3656H77.4266C76.456 21.566 73.9107 23.6557 69.6938 23.6557C64.6371 23.6557 61.29 20.2274 61.29 15.0029ZM73.008 13.2717V13.2068C73.008 11.3782 71.8022 10.137 69.5249 10.137C67.3496 10.137 66.0107 11.3782 65.8758 13.2717H73.008Z" fill="#121212"/>
<path d="M36.1226 6.54553C33.9966 6.54553 32.6011 7.5907 32.0675 8.10507V7.03225H27.3645V23.1658H32.0675V11.8326C32.559 11.1235 33.5496 10.6595 35.1519 10.6595C37.0267 10.6595 38.0316 11.7044 38.0316 13.8598V23.1658H42.7179V13.3699C42.7179 9.09211 40.1742 6.54553 36.1226 6.54553Z" fill="#121212"/>
<path d="M92.2225 2.42732L83.9836 0.571411L82.002 12.7464L88.0846 14.1166L92.2225 2.42732Z" fill="#00B925"/>
<path d="M83.5892 23.2389C85.8267 23.2389 87.6412 21.4695 87.6412 19.2868C87.6412 17.104 85.8267 15.3346 83.5892 15.3346C81.3511 15.3346 79.5366 17.104 79.5366 19.2868C79.5366 21.4695 81.3511 23.2389 83.5892 23.2389Z" fill="#00B925"/>
</g>
</svg>