<?xml version="1.0" encoding="utf-8"?>
<svg xmlns="http://www.w3.org/2000/svg" fill="none" height="16" viewBox="0 0 16 16" width="16">
<path d="M6.23126 12.6666C6.05583 12.6665 5.88436 12.6119 5.73851 12.5094C5.59266 12.407 5.47899 12.2614 5.41186 12.0911C5.34473 11.9208 5.32716 11.7334 5.36138 11.5526C5.39559 11.3718 5.48005 11.2057 5.60407 11.0753L8.52531 8.00565L5.60407 4.93595C5.51935 4.84996 5.45177 4.7471 5.40527 4.63337C5.35878 4.51964 5.33431 4.39732 5.33329 4.27354C5.33226 4.14976 5.35471 4.02701 5.39931 3.91245C5.44392 3.79789 5.50979 3.69381 5.59308 3.60628C5.67637 3.51876 5.77542 3.44954 5.88444 3.40267C5.99346 3.3558 6.11028 3.33221 6.22806 3.33329C6.34585 3.33436 6.46226 3.36008 6.57049 3.40893C6.67872 3.45779 6.77661 3.5288 6.85844 3.61784L10.4069 7.34659C10.5732 7.5214 10.6666 7.75846 10.6666 8.00565C10.6666 8.25283 10.5732 8.48989 10.4069 8.6647L6.85844 12.3935C6.69211 12.5683 6.46651 12.6665 6.23126 12.6666Z" fill="#4D5156"/>
</svg>