<?xml version="1.0" encoding="utf-8"?>
<svg xmlns="http://www.w3.org/2000/svg" fill="none" height="12" viewBox="0 0 16 12" width="16">
<g id="Group" style="mix-blend-mode:overlay">
<path d="M15.1 2.92505C14.8 2.62505 14.4 2.45005 13.975 2.45005H12.15V1.47505C12.15 1.20005 12.05 0.550049 11.1 0.550049H4.85005C3.95005 0.550049 3.85005 1.20005 3.85005 1.47505V2.45005H2.02505C1.15005 2.45005 0.425049 3.17505 0.425049 4.05005V9.85005C0.425049 10.725 1.15005 11.45 2.02505 11.45H13.95C14.825 11.45 15.55 10.725 15.55 9.85005V4.05005C15.575 3.62505 15.4 3.22505 15.1 2.92505ZM14.425 9.85005C14.425 10.1 14.225 10.325 13.95 10.325H2.02505C1.77505 10.325 1.55005 10.125 1.55005 9.85005V4.05005C1.55005 3.80005 1.75005 3.57505 2.02505 3.57505H4.15005C4.60005 3.57505 4.97505 3.20005 4.97505 2.75005V1.67505H11V2.75005C11 3.20005 11.375 3.57505 11.825 3.57505H13.975C14.1 3.57505 14.225 3.62505 14.3 3.72505C14.4 3.82505 14.425 3.92505 14.425 4.05005V9.85005Z" fill="#FFF" id="Vector"/>
<path d="M7.90005 3.875C6.60005 3.875 5.55005 4.925 5.55005 6.25C5.55005 7.55 6.57505 8.575 7.90005 8.575C9.20005 8.575 10.25 7.525 10.25 6.25C10.25 4.975 9.17505 3.875 7.90005 3.875ZM7.90005 7.45C7.20005 7.45 6.67505 6.925 6.67505 6.25C6.67505 5.575 7.22505 5 7.90005 5C8.57505 5 9.12505 5.575 9.12505 6.25C9.12505 6.925 8.57505 7.45 7.90005 7.45Z" fill="#FFF" id="Vector_2"/>
<path d="M3.45005 4.32495H2.87505C2.57505 4.32495 2.30005 4.57495 2.30005 4.89995C2.30005 5.22495 2.55005 5.47495 2.87505 5.47495H3.45005C3.75005 5.47495 4.02505 5.22495 4.02505 4.89995C4.02505 4.57495 3.77505 4.32495 3.45005 4.32495Z" fill="#FFF" id="Vector_3"/>
</g>
</svg>