<?xml version="1.0" encoding="utf-8"?>
<svg xmlns="http://www.w3.org/2000/svg" fill="none" height="16" viewBox="0 0 24 16" width="24">
<g id="Group">
<path d="M22.4992 7.17529H1.49922C1.04922 7.17529 0.636719 7.55029 0.636719 8.03779C0.636719 8.48779 1.01172 8.90029 1.49922 8.90029H22.4992C22.9492 8.90029 23.3617 8.52529 23.3617 8.03779C23.3617 7.55029 22.9492 7.17529 22.4992 7.17529Z" fill="#4D5156" id="Vector"/>
<path d="M22.4992 13.5503H1.49922C1.04922 13.5503 0.636719 13.9253 0.636719 14.4128C0.636719 14.9003 1.01172 15.2753 1.49922 15.2753H22.4992C22.9492 15.2753 23.3617 14.9003 23.3617 14.4128C23.3617 13.9253 22.9492 13.5503 22.4992 13.5503Z" fill="#4D5156" id="Vector_2"/>
<path d="M1.49922 2.4501H22.4992C22.9492 2.4501 23.3617 2.0751 23.3617 1.5876C23.3617 1.1001 22.9867 0.725098 22.4992 0.725098H1.49922C1.04922 0.725098 0.636719 1.1001 0.636719 1.5876C0.636719 2.0751 1.04922 2.4501 1.49922 2.4501Z" fill="#4D5156" id="Vector_3"/>
</g>
</svg>