<?xml version="1.0" encoding="utf-8"?>
<svg xmlns="http://www.w3.org/2000/svg" fill="none" height="16" viewBox="0 0 16 16" width="16">
  <path d="M7.99998 1.33337C8.87546 1.33337 9.74236 1.50581 10.5512 1.84084C11.36 2.17588 12.095 2.66694 12.714 3.286C13.3331 3.90505 13.8241 4.63998 14.1592 5.44882C14.4942 6.25765 14.6666 7.12456 14.6666 8.00004C14.6666 9.76815 13.9643 11.4638 12.714 12.7141C11.4638 13.9643 9.76809 14.6667 7.99998 14.6667C7.1245 14.6667 6.25759 14.4943 5.44876 14.1592C4.63992 13.8242 3.90499 13.3331 3.28593 12.7141C2.03569 11.4638 1.33331 9.76815 1.33331 8.00004C1.33331 6.23193 2.03569 4.53624 3.28593 3.286C4.53618 2.03575 6.23187 1.33337 7.99998 1.33337ZM7.99998 2.66671C6.58549 2.66671 5.22894 3.22861 4.22874 4.2288C3.22855 5.229 2.66665 6.58555 2.66665 8.00004C2.66665 9.41453 3.22855 10.7711 4.22874 11.7713C5.22894 12.7715 6.58549 13.3334 7.99998 13.3334C9.41447 13.3334 10.771 12.7715 11.7712 11.7713C12.7714 10.7711 13.3333 9.41453 13.3333 8.00004C13.3333 6.58555 12.7714 5.229 11.7712 4.2288C10.771 3.22861 9.41447 2.66671 7.99998 2.66671ZM7.99998 7.00004C8.2652 7.00004 8.51955 7.1054 8.70709 7.29293C8.89462 7.48047 8.99998 7.73482 8.99998 8.00004C8.99998 8.26526 8.89462 8.51961 8.70709 8.70715C8.51955 8.89468 8.2652 9.00004 7.99998 9.00004C7.73476 9.00004 7.48041 8.89468 7.29287 8.70715C7.10534 8.51961 6.99998 8.26526 6.99998 8.00004C6.99998 7.73482 7.10534 7.48047 7.29287 7.29293C7.48041 7.1054 7.73476 7.00004 7.99998 7.00004ZM4.99998 7.00004C5.2652 7.00004 5.51955 7.1054 5.70709 7.29293C5.89462 7.48047 5.99998 7.73482 5.99998 8.00004C5.99998 8.26526 5.89462 8.51961 5.70709 8.70715C5.51955 8.89468 5.2652 9.00004 4.99998 9.00004C4.73476 9.00004 4.48041 8.89468 4.29287 8.70715C4.10534 8.51961 3.99998 8.26526 3.99998 8.00004C3.99998 7.73482 4.10534 7.48047 4.29287 7.29293C4.48041 7.1054 4.73476 7.00004 4.99998 7.00004ZM11 7.00004C11.2652 7.00004 11.5195 7.1054 11.7071 7.29293C11.8946 7.48047 12 7.73482 12 8.00004C12 8.26526 11.8946 8.51961 11.7071 8.70715C11.5195 8.89468 11.2652 9.00004 11 9.00004C10.7348 9.00004 10.4804 8.89468 10.2929 8.70715C10.1053 8.51961 9.99998 8.26526 9.99998 8.00004C9.99998 7.73482 10.1053 7.48047 10.2929 7.29293C10.4804 7.1054 10.7348 7.00004 11 7.00004Z" fill="#767676"/>
</svg>