<?xml version="1.0" encoding="utf-8"?>
<svg xmlns="http://www.w3.org/2000/svg" fill="none" height="24" viewBox="0 0 24 24" width="24">
  <path d="M16 11.9828C15.9999 12.3541 15.8597 12.7101 15.6101 12.9726L10.2877 18.5726C10.165 18.7063 10.0181 18.813 9.85579 18.8863C9.69345 18.9597 9.51885 18.9983 9.34217 18.9999C9.16549 19.0016 8.99028 18.9661 8.82675 18.8957C8.66323 18.8254 8.51466 18.7214 8.38973 18.5899C8.26479 18.4585 8.16599 18.3022 8.09909 18.1301C8.03218 17.9581 7.99851 17.7737 8.00005 17.5878C8.00159 17.4019 8.03829 17.2182 8.10803 17.0474C8.17776 16.8766 8.27913 16.7221 8.40622 16.593L12.7879 11.9828L8.40622 7.3726C8.16384 7.10855 8.02972 6.75491 8.03275 6.38784C8.03578 6.02076 8.17572 5.66962 8.42243 5.41005C8.66913 5.15048 9.00287 5.00324 9.35175 5.00005C9.70063 4.99686 10.0367 5.13798 10.2877 5.393L15.6101 10.993C15.8597 11.2555 15.9999 11.6115 16 11.9828Z" fill="#00B925"/>
</svg>