<?xml version="1.0" encoding="utf-8"?>
<svg xmlns="http://www.w3.org/2000/svg" fill="none" height="16" viewBox="0 0 19 16" width="19">
  <path d="M10.1 5.6a.838.838 0 00-1.2 0L.275 14.075a.838.838 0 000 1.2.838.838 0 001.2 0L9.5 7.4l8.025 7.912c.15.15.375.226.6.226.225 0 .45-.075.6-.263a.838.838 0 000-1.2L10.1 5.6z" fill="#575D69"/>
  <path d="M1.475 10.4L9.5 2.525l8.025 7.912c.15.15.375.226.6.226.225 0 .45-.075.6-.263a.838.838 0 000-1.2L10.1.725a.838.838 0 00-1.2 0L.275 9.2a.838.838 0 000 1.2.838.838 0 001.2 0z" fill="#575D69"/>
</svg>