<?xml version="1.0" encoding="utf-8"?>
<svg xmlns="http://www.w3.org/2000/svg" fill="#4D5156" height="24" viewBox="0 0 24 24" width="24">
  <path d="M11.5479 10.5809C13.9902 10.5809 15.9704 8.66667 15.9704 6.29043C15.9704 3.91419 13.9902 2 11.5479 2C9.10569 2 7.12549 3.91419 7.12549 6.29043C7.12549 8.66667 9.10569 10.5809 11.5479 10.5809ZM11.5479 3.51815C13.1651 3.51815 14.4852 4.77228 14.4852 6.32343C14.4852 7.87459 13.1651 9.12871 11.5479 9.12871C9.93077 9.12871 8.61064 7.87459 8.61064 6.32343C8.61064 4.77228 9.93077 3.51815 11.5479 3.51815Z"/>
  <path d="M13.6931 12.0659H9.40264C5.87129 12.0659 3 14.9702 3 18.5016V21.2408C3 21.6369 3.33003 21.9999 3.75908 21.9999C4.18812 21.9999 4.51815 21.6699 4.51815 21.2408V18.5016C4.51815 15.7953 6.72937 13.5511 9.46865 13.5511H13.7261C16.4323 13.5511 18.6766 15.7623 18.6766 18.5016V21.2408C18.6766 21.6369 19.0066 21.9999 19.4356 21.9999C19.8647 21.9999 20.1947 21.6699 20.1947 21.2408V18.5016C20.0957 14.9702 17.2244 12.0659 13.6931 12.0659Z"/>
</svg>