<svg width="16" height="16" viewBox="0 0 16 16" fill="none" xmlns="http://www.w3.org/2000/svg">
<g>
<path d="M3.74426 5.33318H1.33333V5.99984H3.3724C3.48445 5.7703 3.60868 5.5478 3.74426 5.33318Z" fill="#ffffff"/>
<path d="M2.88293 7.33318L0 7.33318V7.99984L2.74742 7.99984C2.78197 7.77388 2.82732 7.55148 2.88293 7.33318Z" fill="#ffffff"/>
<path d="M2.67165 9.33317H0.666667L0.666667 9.99984H2.72835C2.69914 9.78066 2.68008 9.55828 2.67165 9.33317Z" fill="#ffffff"/>
<path d="M3.0418 11.3332H2V11.9998H3.30906C3.20901 11.7834 3.1197 11.5609 3.0418 11.3332Z" fill="#ffffff"/>
<path d="M7.55582 0.666504H11.7783V2.06333H7.55582V0.666504Z" fill="#ffffff"/>
<path d="M5.47942 9.09984C5.47942 6.73729 7.35402 4.82207 9.66646 4.82207V9.09984H13.8535C13.8535 11.4624 11.9789 13.3776 9.66646 13.3776C7.35402 13.3776 5.47942 11.4624 5.47942 9.09984Z" fill="#ffffff"/>
<path fill-rule="evenodd" clip-rule="evenodd" d="M15.6137 4.13761L14.6144 5.12936C15.3589 6.05365 15.8253 7.16785 15.9597 8.34363C16.0941 9.51942 15.8911 10.709 15.3741 11.7753C14.8571 12.8416 14.0471 13.7413 13.0374 14.3707C12.0277 15.0002 10.8594 15.3338 9.66706 15.3332C6.1624 15.3332 3.33333 12.5186 3.33333 9.04746C3.33333 5.57634 6.16944 2.76174 9.66706 2.76174C11.1058 2.76153 12.5013 3.24946 13.6221 4.1446L14.6215 3.15285C14.9804 3.44619 15.3111 3.78142 15.6137 4.13761ZM4.74083 9.04746C4.74083 11.7503 6.94356 13.9363 9.66706 13.9363C12.3906 13.9363 14.5933 11.7503 14.5933 9.04746C14.5933 6.3446 12.3906 4.15857 9.66706 4.15857C6.94356 4.15857 4.74083 6.3446 4.74083 9.04746Z" fill="#ffffff"/>
</g>
<defs>
<clipPath id="clip0_800_1818">
<rect width="16" height="16" fill="white" />
</clipPath>
</defs>
</svg>
