<?xml version="1.0" encoding="utf-8"?>
<svg xmlns="http://www.w3.org/2000/svg" fill="none" height="32" viewBox="0 0 124 32" width="124">
  <mask height="32" id="mask0_3221_59867" maskUnits="userSpaceOnUse" style="mask-type:luminance" width="124" x="0" y="0">
    <path d="M124 0H0V32H124V0Z" fill="white"/>
  </mask>
  <g mask="url(#mask0_3221_59867)">
    <path d="M0 26.526V4.84082H6.48189V24.1993C6.48189 25.1765 6.85222 25.6425 7.91616 25.6425H10.4503V31.3206H5.13757C1.62047 31.3206 0 29.971 0 26.526Z" fill="white"/>
    <path d="M12.2852 24.8924C12.2852 20.6381 15.0308 17.8322 20.4327 17.4701L26.149 17.1081V16.1567C26.149 14.2111 25.1602 13.3958 22.9078 13.3958C20.7034 13.3958 19.802 14.029 19.5772 15.4775H13.3655C13.8152 10.9061 16.921 8.28125 23.3575 8.28125C28.8052 8.28125 32.0921 10.9971 32.0921 15.7496V25.6627C32.0921 26.0698 32.2712 26.2958 32.6771 26.2958H34.6568V31.3204H30.1562C28.5804 31.3204 27.679 30.4601 27.5895 29.1028C26.3738 30.8683 23.8987 31.9996 20.8387 31.9996C15.6158 31.9996 12.2852 29.2838 12.2852 24.8924ZM21.6922 26.885C24.1693 26.885 26.149 25.5716 26.149 22.8558V21.8155L21.4674 22.2226C19.4877 22.4037 18.5426 23.4439 18.5426 24.6664C18.5426 26.0248 19.623 26.885 21.6922 26.885Z" fill="white"/>
    <path d="M59.3789 20.231C59.3789 13.1698 63.969 8.28125 70.8572 8.28125C76.665 8.28125 80.7618 11.6764 81.1655 16.7909H74.8186C74.5043 15.2975 73.1075 13.984 70.7677 13.984C67.7513 13.984 65.8612 16.3377 65.8612 20.1849C65.8612 24.0331 67.7971 26.2958 70.7219 26.2958C73.018 26.2958 74.548 24.9835 74.9081 23.0368H81.2555C80.7618 27.6993 76.8898 31.9996 70.4971 31.9996C63.5651 31.9996 59.3789 26.975 59.3789 20.231Z" fill="white"/>
    <path d="M82.4102 20.0049C82.4102 12.8977 86.9106 8.28125 93.4826 8.28125C100.371 8.28125 104.513 12.7166 104.513 19.8228C104.513 20.6381 104.467 21.4534 104.378 22.4037H88.6218C88.8923 25.2095 90.7368 26.749 93.7531 26.749C95.7789 26.749 97.084 25.8887 97.6707 24.6664H104.107C102.802 29.1028 99.3796 31.9996 93.7097 31.9996C86.9106 31.9996 82.4102 27.2472 82.4102 20.0049ZM98.1659 17.6052V17.5152C98.1659 14.9803 96.5446 13.2598 93.4826 13.2598C90.5577 13.2598 88.7574 14.9803 88.5761 17.6052H98.1659Z" fill="white"/>
    <path d="M48.5728 8.28125C45.7143 8.28125 43.8379 9.73007 43.1204 10.4431V8.95594H36.7969V31.3204H43.1204V15.6102C43.7813 14.6272 45.1132 13.984 47.2677 13.984C49.7885 13.984 51.1396 15.4325 51.1396 18.4204V31.3204H57.4407V17.7412C57.4407 11.8113 54.0205 8.28125 48.5728 8.28125Z" fill="white"/>
    <path d="M124 2.57268L112.922 0L110.258 16.8771L118.436 18.7765L124 2.57268Z" fill="#FACA15"/>
    <path d="M112.392 31.4219C115.401 31.4219 117.841 28.9691 117.841 25.9434C117.841 22.9177 115.401 20.4648 112.392 20.4648C109.383 20.4648 106.943 22.9177 106.943 25.9434C106.943 28.9691 109.383 31.4219 112.392 31.4219Z" fill="#FACA15"/>
  </g>
</svg>